<svg xmlns="http://www.w3.org/2000/svg" viewBox="0 0 236.1 155.54"><defs><style>.cls-1{fill:#fff;}</style></defs><title>Logotipo principalnegativo</title><g id="Capa_2" data-name="Capa 2"><g id="Capa_1-2" data-name="Capa 1"><path class="cls-1" d="M154,130.84H155v4.07H154Z"/><path class="cls-1" d="M155.94,130.84H157l1.54,2.68v-2.68h.82v4.07h-.92l-1.69-2.9v2.9h-.82Z"/><path class="cls-1" d="M160.31,130.84h1.33a3,3,0,0,1,.94.14,1.88,1.88,0,0,1,.66.4,1.58,1.58,0,0,1,.4.63,2.39,2.39,0,0,1,.13.82v0a2.45,2.45,0,0,1-.13.83,1.68,1.68,0,0,1-1.07,1,2.67,2.67,0,0,1-.93.15h-1.33Zm1.3,3.35a1.16,1.16,0,0,0,.91-.33,1.46,1.46,0,0,0,.29-1v0a1.42,1.42,0,0,0-.28-1,1.2,1.2,0,0,0-.93-.33h-.37v2.63Z"/><path class="cls-1" d="M166.15,135a1.71,1.71,0,0,1-1.24-.42,1.63,1.63,0,0,1-.44-1.23v-2.48h.93v2.42a1.24,1.24,0,0,0,.17.75.67.67,0,0,0,.58.23.73.73,0,0,0,.6-.23,1.2,1.2,0,0,0,.19-.78v-2.39h.92v2.45a1.67,1.67,0,0,1-.44,1.26A1.77,1.77,0,0,1,166.15,135Z"/><path class="cls-1" d="M170.19,135a2.53,2.53,0,0,1-.72-.09,1.53,1.53,0,0,1-.51-.27,1.18,1.18,0,0,1-.32-.42,1.64,1.64,0,0,1-.12-.56h.88a1,1,0,0,0,.06.26.46.46,0,0,0,.13.21.59.59,0,0,0,.23.14,1,1,0,0,0,.37.06.74.74,0,0,0,.49-.15.48.48,0,0,0,.18-.39.66.66,0,0,0,0-.21.53.53,0,0,0-.12-.14.75.75,0,0,0-.24-.1,2.33,2.33,0,0,0-.37-.08,4.32,4.32,0,0,1-.67-.14,1.37,1.37,0,0,1-.45-.24.85.85,0,0,1-.27-.35,1.5,1.5,0,0,1-.08-.5,1.14,1.14,0,0,1,.11-.49,1.33,1.33,0,0,1,.29-.38,1.41,1.41,0,0,1,.47-.25,2,2,0,0,1,.61-.09,1.73,1.73,0,0,1,1.08.3,1.23,1.23,0,0,1,.44.91h-.84a.61.61,0,0,0-.22-.41.7.7,0,0,0-.46-.13.67.67,0,0,0-.46.13.4.4,0,0,0-.15.33.58.58,0,0,0,0,.19.31.31,0,0,0,.12.14.7.7,0,0,0,.23.11,3.43,3.43,0,0,0,.38.08,3.43,3.43,0,0,1,.64.13,1.36,1.36,0,0,1,.47.21.88.88,0,0,1,.28.36,1.39,1.39,0,0,1,.1.53,1.26,1.26,0,0,1-.11.51,1.24,1.24,0,0,1-.31.41,1.46,1.46,0,0,1-.49.28A1.89,1.89,0,0,1,170.19,135Z"/><path class="cls-1" d="M173.16,131.56h-1.1v-.72h3.12v.72h-1.09v3.35h-.93Z"/><path class="cls-1" d="M175.83,130.84h1.45a2.63,2.63,0,0,1,.65.08,1.24,1.24,0,0,1,.49.23,1.07,1.07,0,0,1,.32.38,1.35,1.35,0,0,1,.11.55v0a1.27,1.27,0,0,1-.06.41,1.05,1.05,0,0,1-.18.31,1.44,1.44,0,0,1-.27.22,1.22,1.22,0,0,1-.33.14l1.08,1.73h-1l-1-1.57h-.4v1.57h-.91Zm1.43,1.87a.85.85,0,0,0,.52-.14.57.57,0,0,0,.17-.44v0a.49.49,0,0,0-.18-.44.92.92,0,0,0-.51-.12h-.52v1.16Z"/><path class="cls-1" d="M179.73,130.84h.93v4.07h-.93Z"/><path class="cls-1" d="M182.64,130.84h1.2l1.32,4.07h-1l-.28-.91h-1.47l-.28.91h-.86Zm0,2.51h1.07l-.53-1.76Z"/><path class="cls-1" d="M185.79,130.84h.92v3.35h1.65v.72h-2.57Z"/><path class="cls-1" d="M190.32,130.84h.93v4.07h-.93Z"/><path class="cls-1" d="M192.21,130.84h1.07l1.55,2.68v-2.68h.82v4.07h-.93L193,132v2.9h-.82Z"/><path class="cls-1" d="M198,135a2.65,2.65,0,0,1-.73-.09,1.76,1.76,0,0,1-.51-.27,1.15,1.15,0,0,1-.31-.42,1.64,1.64,0,0,1-.13-.56h.88a1,1,0,0,0,.06.26.54.54,0,0,0,.37.35,1,1,0,0,0,.37.06.75.75,0,0,0,.49-.15.48.48,0,0,0,.18-.39.46.46,0,0,0,0-.21.31.31,0,0,0-.12-.14.67.67,0,0,0-.24-.1,2.33,2.33,0,0,0-.37-.08,4.59,4.59,0,0,1-.67-.14,1.37,1.37,0,0,1-.45-.24.75.75,0,0,1-.26-.35,1.28,1.28,0,0,1-.08-.5,1.13,1.13,0,0,1,.1-.49,1.2,1.2,0,0,1,.3-.38,1.32,1.32,0,0,1,.47-.25,1.89,1.89,0,0,1,.6-.09,1.73,1.73,0,0,1,1.08.3,1.23,1.23,0,0,1,.45.91h-.85a.65.65,0,0,0-.21-.41.73.73,0,0,0-.47-.13.65.65,0,0,0-.45.13.4.4,0,0,0-.15.33.58.58,0,0,0,0,.19.36.36,0,0,0,.11.14.82.82,0,0,0,.23.11l.38.08a3.55,3.55,0,0,1,.65.13,1.56,1.56,0,0,1,.47.21,1.09,1.09,0,0,1,.28.36,1.4,1.4,0,0,1,.09.53,1.26,1.26,0,0,1-.11.51,1.21,1.21,0,0,1-.3.41,1.57,1.57,0,0,1-.49.28A1.93,1.93,0,0,1,198,135Z"/><path class="cls-1" d="M201.91,135a1.71,1.71,0,0,1-1.24-.42,1.63,1.63,0,0,1-.44-1.23v-2.48h.93v2.42a1.33,1.33,0,0,0,.16.75.71.71,0,0,0,.59.23.74.74,0,0,0,.6-.23,1.27,1.27,0,0,0,.19-.78v-2.39h.92v2.45a1.67,1.67,0,0,1-.44,1.26A1.79,1.79,0,0,1,201.91,135Z"/><path class="cls-1" d="M204.53,130.84h.92v3.35h1.66v.72h-2.58Z"/><path class="cls-1" d="M208.83,130.84H210l1.32,4.07h-1l-.28-.91h-1.48l-.27.91h-.87Zm0,2.51h1.08l-.54-1.76Z"/><path class="cls-1" d="M212.37,131.56h-1.1v-.72h3.12v.72h-1.1v3.35h-.92Z"/><path class="cls-1" d="M215.06,130.84H216v4.07h-.92Z"/><path class="cls-1" d="M218.82,135a2.2,2.2,0,0,1-.86-.16,1.76,1.76,0,0,1-.65-.43,1.66,1.66,0,0,1-.42-.65,2.27,2.27,0,0,1-.15-.83v0a2.24,2.24,0,0,1,.15-.84,2.13,2.13,0,0,1,.44-.65,1.93,1.93,0,0,1,.66-.43,2.32,2.32,0,0,1,.84-.15,2.24,2.24,0,0,1,.84.15,1.84,1.84,0,0,1,.67.41,1.92,1.92,0,0,1,.42.65,2,2,0,0,1,.16.83v0a2.32,2.32,0,0,1-.15.84,2.06,2.06,0,0,1-.42.66,2.09,2.09,0,0,1-.66.43A2.21,2.21,0,0,1,218.82,135Zm0-.73a1.11,1.11,0,0,0,.46-.1,1.07,1.07,0,0,0,.36-.27,1.4,1.4,0,0,0,.22-.42,2,2,0,0,0,.08-.56v0a1.91,1.91,0,0,0-.08-.54,1.2,1.2,0,0,0-.22-.42,1.06,1.06,0,0,0-.35-.27,1.2,1.2,0,0,0-1,0,1.1,1.1,0,0,0-.35.26,1.17,1.17,0,0,0-.22.43,1.59,1.59,0,0,0-.08.55v.05a2,2,0,0,0,.08.56,1.27,1.27,0,0,0,.24.41,1,1,0,0,0,.36.27A1,1,0,0,0,218.84,134.24Z"/><path class="cls-1" d="M221.65,130.84h1.07l1.55,2.68v-2.68h.82v4.07h-.92l-1.7-2.9v2.9h-.82Z"/><path class="cls-1" d="M143,89.68h9.13v2.5h-5.91V96h4.67v2.43h-4.67v5.51H143Z"/><path class="cls-1" d="M154.36,88.78h2.87V103.9h-2.87Z"/><path class="cls-1" d="M162.9,104.12a4.89,4.89,0,0,1-1.35-.18,3.27,3.27,0,0,1-1.1-.56,2.68,2.68,0,0,1-.76-1,3.38,3.38,0,0,1-.28-1.41,2.93,2.93,0,0,1,.4-1.55,3,3,0,0,1,1.12-1,5.29,5.29,0,0,1,1.71-.58,12.25,12.25,0,0,1,2.18-.18H166v-.42a2.46,2.46,0,0,0-.35-1.42,1.57,1.57,0,0,0-1.34-.49,1.56,1.56,0,0,0-1.77,1.48h-2.73a3.61,3.61,0,0,1,.45-1.59,3.48,3.48,0,0,1,1-1.12,4.25,4.25,0,0,1,1.45-.64,7.18,7.18,0,0,1,1.78-.21,6.88,6.88,0,0,1,1.75.21,3.81,3.81,0,0,1,1.39.66,3,3,0,0,1,.89,1.2,4.32,4.32,0,0,1,.32,1.78v6.79H166v-1.26a3.7,3.7,0,0,1-1.19,1.06A3.87,3.87,0,0,1,162.9,104.12Zm.85-2a2.6,2.6,0,0,0,1.6-.49,1.64,1.64,0,0,0,.65-1.38v-.88h-1.12a4.79,4.79,0,0,0-1.94.32,1.17,1.17,0,0,0-.7,1.16,1.23,1.23,0,0,0,.36.93A1.66,1.66,0,0,0,163.75,102.13Z"/><path class="cls-1" d="M175.35,104.1a3.47,3.47,0,0,1-2.51-.83,3.27,3.27,0,0,1-.86-2.46V95.54h-1.33v-2H172V91.25h2.87V93.5H177v2h-2.19v5a1.26,1.26,0,0,0,.29.92,1.1,1.1,0,0,0,.86.31,3.61,3.61,0,0,0,.59-.05,2.15,2.15,0,0,0,.51-.15v2.23c-.2.06-.45.13-.74.19A5.05,5.05,0,0,1,175.35,104.1Z"/><path class="cls-1" d="M184,89.68h4.25l3.32,8.85,3.29-8.85H199V103.9h-3.2v-10l-3.94,10h-1l-4-10v10H184Z"/><path class="cls-1" d="M206.75,104.12a6.33,6.33,0,0,1-2.17-.36,4.7,4.7,0,0,1-1.71-1.06,4.6,4.6,0,0,1-1.14-1.65,5.56,5.56,0,0,1-.41-2.22v-.16a5.65,5.65,0,0,1,.41-2.23,5,5,0,0,1,2.83-2.8,5.82,5.82,0,0,1,2.11-.38,6.14,6.14,0,0,1,1.93.3,4.67,4.67,0,0,1,1.61,1,4.57,4.57,0,0,1,1.11,1.64,6.21,6.21,0,0,1,.42,2.4v.79h-7.5a3,3,0,0,0,.73,2,2.43,2.43,0,0,0,1.86.71,2.48,2.48,0,0,0,1.52-.4,1.82,1.82,0,0,0,.65-1h2.72a3.72,3.72,0,0,1-1.54,2.59A5.88,5.88,0,0,1,206.75,104.12Zm2.19-6.55a2.71,2.71,0,0,0-.66-1.76,2.18,2.18,0,0,0-1.61-.56,2.22,2.22,0,0,0-1.6.6,2.91,2.91,0,0,0-.79,1.72Z"/><path class="cls-1" d="M217.67,104.1a3.48,3.48,0,0,1-2.51-.83,3.27,3.27,0,0,1-.85-2.46V95.54H213v-2h1.34V91.25h2.86V93.5h2.19v2h-2.19v5a1.3,1.3,0,0,0,.29.92,1.1,1.1,0,0,0,.86.31,3.51,3.51,0,0,0,.59-.05,2.15,2.15,0,0,0,.51-.15v2.23c-.2.06-.45.13-.74.19A5.05,5.05,0,0,1,217.67,104.1Z"/><path class="cls-1" d="M224.51,104.12a4.77,4.77,0,0,1-1.34-.18,3.23,3.23,0,0,1-1.11-.56,2.55,2.55,0,0,1-.75-1A3.23,3.23,0,0,1,221,101a2.84,2.84,0,0,1,.4-1.55,2.91,2.91,0,0,1,1.11-1,5.46,5.46,0,0,1,1.71-.58,12.28,12.28,0,0,1,2.19-.18h1.17v-.42a2.38,2.38,0,0,0-.35-1.42,1.57,1.57,0,0,0-1.34-.49,1.76,1.76,0,0,0-1.26.4,1.89,1.89,0,0,0-.51,1.08h-2.72a3.74,3.74,0,0,1,.44-1.59,3.51,3.51,0,0,1,1-1.12,4.11,4.11,0,0,1,1.44-.64,7.18,7.18,0,0,1,1.78-.21,6.83,6.83,0,0,1,1.75.21,3.81,3.81,0,0,1,1.39.66,3,3,0,0,1,.9,1.2,4.5,4.5,0,0,1,.32,1.78v6.79h-2.81v-1.26a3.66,3.66,0,0,1-1.18,1.06A3.93,3.93,0,0,1,224.51,104.12Zm.85-2a2.6,2.6,0,0,0,1.6-.49,1.62,1.62,0,0,0,.65-1.38v-.88H226.5a4.81,4.81,0,0,0-1.95.32,1.17,1.17,0,0,0-.7,1.16,1.23,1.23,0,0,0,.36.93A1.66,1.66,0,0,0,225.36,102.13Z"/><path class="cls-1" d="M233.24,88.78h2.86V103.9h-2.86Z"/><path class="cls-1" d="M150,108.81h4.91a6.31,6.31,0,0,1,4,1.13,4.11,4.11,0,0,1,1.41,3.4v.08a4.69,4.69,0,0,1-.38,2,3.73,3.73,0,0,1-1.07,1.38,4.72,4.72,0,0,1-1.68.83,8.34,8.34,0,0,1-2.2.27h-1.81V123H150Zm4.83,6.8a2.58,2.58,0,0,0,1.81-.55,2.07,2.07,0,0,0,.6-1.62v-.08a1.94,1.94,0,0,0-.63-1.62,2.88,2.88,0,0,0-1.78-.49h-1.63v4.36Z"/><path class="cls-1" d="M164.91,123.25a4.87,4.87,0,0,1-1.34-.18,3.18,3.18,0,0,1-1.1-.56,2.68,2.68,0,0,1-.76-1,3.34,3.34,0,0,1-.28-1.41,2.93,2.93,0,0,1,.4-1.55,3.06,3.06,0,0,1,1.11-1,5.46,5.46,0,0,1,1.71-.58,12.44,12.44,0,0,1,2.19-.18H168v-.41a2.47,2.47,0,0,0-.35-1.43,1.56,1.56,0,0,0-1.34-.48,1.79,1.79,0,0,0-1.27.39,1.82,1.82,0,0,0-.5,1.08h-2.73a3.61,3.61,0,0,1,.45-1.59,3.48,3.48,0,0,1,1-1.12,4.3,4.3,0,0,1,1.44-.64,7.24,7.24,0,0,1,1.78-.21,6.83,6.83,0,0,1,1.75.21,4,4,0,0,1,1.4.66,3.1,3.1,0,0,1,.89,1.2,4.51,4.51,0,0,1,.32,1.79V123h-2.8v-1.26a3.7,3.7,0,0,1-1.19,1.06A3.88,3.88,0,0,1,164.91,123.25Zm.86-2a2.6,2.6,0,0,0,1.6-.49,1.64,1.64,0,0,0,.65-1.38v-.88H166.9a4.88,4.88,0,0,0-2,.32,1.18,1.18,0,0,0-.69,1.17,1.22,1.22,0,0,0,.36.92A1.64,1.64,0,0,0,165.77,121.26Z"/><path class="cls-1" d="M177.36,123.23a3.46,3.46,0,0,1-2.5-.83A3.26,3.26,0,0,1,174,120v-5.28h-1.33v-2H174v-2.25h2.87v2.25h2.18v2h-2.18v5a1.3,1.3,0,0,0,.28.92,1.14,1.14,0,0,0,.87.31,3.61,3.61,0,0,0,.59,0,2.07,2.07,0,0,0,.5-.15V123c-.2.06-.44.13-.73.19A5.09,5.09,0,0,1,177.36,123.23Z"/><path class="cls-1" d="M185.1,123.23a3.48,3.48,0,0,1-2.51-.83,3.26,3.26,0,0,1-.85-2.45v-5.28h-1.33v-2h1.33v-2.25h2.86v2.25h2.19v2H184.6v5a1.3,1.3,0,0,0,.29.92,1.11,1.11,0,0,0,.87.31,3.48,3.48,0,0,0,.58,0,2.15,2.15,0,0,0,.51-.15V123c-.2.06-.44.13-.74.19A5.05,5.05,0,0,1,185.1,123.23Z"/><path class="cls-1" d="M193.83,123.25a6.37,6.37,0,0,1-2.17-.36,4.7,4.7,0,0,1-1.71-1.06,4.6,4.6,0,0,1-1.14-1.65,5.74,5.74,0,0,1-.41-2.22v-.16a5.87,5.87,0,0,1,.41-2.23,4.94,4.94,0,0,1,2.83-2.79,5.65,5.65,0,0,1,2.11-.39,5.87,5.87,0,0,1,1.93.31,4.41,4.41,0,0,1,1.61.94,4.46,4.46,0,0,1,1.12,1.64,6.41,6.41,0,0,1,.41,2.4v.79h-7.5a3.06,3.06,0,0,0,.73,2,2.43,2.43,0,0,0,1.86.71,2.4,2.4,0,0,0,1.52-.4,1.74,1.74,0,0,0,.65-1h2.72a3.68,3.68,0,0,1-1.54,2.59A5.78,5.78,0,0,1,193.83,123.25ZM196,116.7a2.61,2.61,0,0,0-.66-1.76,2.51,2.51,0,0,0-3.21,0,2.91,2.91,0,0,0-.79,1.72Z"/><path class="cls-1" d="M201,112.63h2.88v2a3.91,3.91,0,0,1,1.3-1.6,3.78,3.78,0,0,1,2.07-.55v2.68a4.29,4.29,0,0,0-2.49.58,2.35,2.35,0,0,0-.88,2.09V123H201Z"/><path class="cls-1" d="M209.32,112.63h2.89v1.65a3.55,3.55,0,0,1,1.23-1.34,3.81,3.81,0,0,1,2.15-.55,3.93,3.93,0,0,1,1.41.24,3,3,0,0,1,1.11.71,3.33,3.33,0,0,1,.72,1.27,5.7,5.7,0,0,1,.26,1.8V123h-2.88v-6.21a2.4,2.4,0,0,0-.44-1.58,1.74,1.74,0,0,0-1.39-.51,2,2,0,0,0-2.17,2.29v6h-2.89Z"/><path class="cls-1" d="M225.57,123.25a5.29,5.29,0,0,1-3.28-.9,3.23,3.23,0,0,1-1.25-2.58h2.68a1.91,1.91,0,0,0,.49,1.1,1.87,1.87,0,0,0,1.34.39,2.08,2.08,0,0,0,1.24-.3,1,1,0,0,0,.39-.85.87.87,0,0,0-.48-.81,5.21,5.21,0,0,0-1.62-.43,10.29,10.29,0,0,1-1.76-.4,3.69,3.69,0,0,1-1.19-.61,2,2,0,0,1-.68-.93,3.62,3.62,0,0,1-.21-1.3,2.82,2.82,0,0,1,.34-1.42,3.4,3.4,0,0,1,.93-1,4.07,4.07,0,0,1,1.3-.59,5.66,5.66,0,0,1,1.54-.2,6.77,6.77,0,0,1,1.6.17,3.85,3.85,0,0,1,1.33.55,3,3,0,0,1,.91,1,3.89,3.89,0,0,1,.46,1.52H227a1.5,1.5,0,0,0-.49-.94,2.24,2.24,0,0,0-2.22,0,.93.93,0,0,0-.39.77.78.78,0,0,0,.44.73,5,5,0,0,0,1.57.39,14.89,14.89,0,0,1,1.73.36,4.39,4.39,0,0,1,1.27.58,2.47,2.47,0,0,1,.77.93,3.21,3.21,0,0,1,.27,1.4,3,3,0,0,1-1.16,2.55A5.22,5.22,0,0,1,225.57,123.25Z"/><path class="cls-1" d="M233,114.27a1.28,1.28,0,0,1-.3.43,1.48,1.48,0,0,1-.45.28,1.46,1.46,0,0,1-.55.11,1.42,1.42,0,0,1-.55-.11,1.48,1.48,0,0,1-.45-.28,1.28,1.28,0,0,1-.3-.43,1.18,1.18,0,0,1-.12-.53,1.36,1.36,0,0,1,.11-.53,1.66,1.66,0,0,1,.3-.43,1.51,1.51,0,0,1,.45-.29,1.46,1.46,0,0,1,1.11,0,1.17,1.17,0,0,1,.45.29,1.19,1.19,0,0,1,.3.43,1.31,1.31,0,0,1,.11.52A1.41,1.41,0,0,1,233,114.27Zm-.5.26a1,1,0,0,0,.24-.34,1.14,1.14,0,0,0,.09-.46,1,1,0,0,0-.09-.44,1,1,0,0,0-.23-.36,1.09,1.09,0,0,0-.36-.22,1.13,1.13,0,0,0-.45-.09,1.14,1.14,0,0,0-.46.09,1,1,0,0,0-.36.23.93.93,0,0,0-.23.35,1.13,1.13,0,0,0-.09.45,1.06,1.06,0,0,0,.09.45,1.09,1.09,0,0,0,.24.35,1,1,0,0,0,.36.22,1.12,1.12,0,0,0,.45.08,1,1,0,0,0,.44-.08A1,1,0,0,0,232.5,114.53Z"/><path class="cls-1" d="M232,113.83a.4.4,0,0,0,.18-.13.32.32,0,0,0,.08-.23h0a.39.39,0,0,0-.14-.32.75.75,0,0,0-.39-.09h-.5v1.32h.34v-.49h.12l.29.49h.36Zm-.08-.34c0,.11-.07.17-.2.17h-.15v-.34h.15a.33.33,0,0,1,.15,0,.18.18,0,0,1,0,.14Z"/><path class="cls-1" d="M158,53.15h14.84v4.07h-9.6v6.15h7.6v3.94h-7.6v9H158Z"/><path class="cls-1" d="M176.12,53.15H183l5.4,14.39,5.34-14.39h6.79V76.27h-5.21V60L189,76.27h-1.71L180.81,60V76.27h-4.69Z"/><path class="cls-1" d="M204.3,53.15h8A10.2,10.2,0,0,1,218.82,55a6.67,6.67,0,0,1,2.3,5.53v.13a7.63,7.63,0,0,1-.62,3.19,6.09,6.09,0,0,1-1.74,2.24A7.42,7.42,0,0,1,216,67.42a13.25,13.25,0,0,1-3.58.44h-2.94v8.41H204.3Zm7.86,11.06a4.22,4.22,0,0,0,2.94-.89,3.39,3.39,0,0,0,1-2.64v-.13a3.15,3.15,0,0,0-1-2.63,4.63,4.63,0,0,0-2.9-.79h-2.65v7.08Z"/><path class="cls-1" d="M64,10a54,54,0,0,1,12.38,1.44L151.72,29.1c-.68.39-1.32.77-1.94,1.15l-.44.28-.12.08c-.7.44-1.4.9-2.11,1.38l-.11.08-.64.43c-.9.63-1.7,1.21-2.45,1.78l-.38.3-.09.06c-.67.52-1.35,1.06-2.05,1.65l-.66.54c-.84.72-1.59,1.38-2.28,2l-.35.32,0,0q-1,.89-1.92,1.86c-.21.2-.41.41-.61.62-.79.81-1.48,1.54-2.12,2.26l-.27.31,0,0c-.58.66-1.18,1.37-1.81,2.14l-.52.64c-.71.9-1.34,1.71-1.91,2.49l-.23.33c-.53.73-1.06,1.49-1.62,2.33l-.46.7c-.64,1-1.19,1.87-1.68,2.71l-.17.29c-.46.79-.93,1.63-1.42,2.57l-.39.74c-.55,1.06-1,2-1.44,2.93a2.29,2.29,0,0,0-.1.23c-.4.86-.79,1.77-1.2,2.78l-.32.78c-.45,1.14-.82,2.15-1.15,3.1l-.06.18c-.31.91-.62,1.9-1,3l-.24.82c-.35,1.23-.62,2.27-.85,3.27s-.46,2.06-.69,3.31q-.09.42-.15.84c-.2,1.14-.36,2.16-.49,3.13v.06l0,.12c-.13,1-.24,2-.34,3.29,0,.28-.05.56-.07.84-.08,1.08-.13,2.07-.16,3,0,.09,0,.18,0,.27,0,1,0,2,0,3.24,0,.28,0,.56,0,.84,0,1.06.07,2,.13,2.93,0,.11,0,.21,0,.34.07,1,.17,2,.31,3.17,0,.28.06.56.1.84.13,1,.27,2,.41,2.83l.06.37c.17.95.37,2,.61,3.08.06.27.12.55.19.84.21.93.43,1.83.66,2.66v0c0,.13.07.27.11.4.25.92.54,1.89.88,3,.09.27.17.53.28.83.29.87.59,1.72.89,2.52l0,.07.16.43c.34.89.72,1.81,1.15,2.83.11.24.22.48.32.72l0,.09c.36.8.72,1.58,1.1,2.35l0,.1c.07.14.14.29.22.44.42.85.88,1.72,1.4,2.68l.45.79c.41.73.84,1.46,1.28,2.18l.07.12.27.44c.38.62.79,1.24,1.22,1.89L51.7,116.6A54.06,54.06,0,0,1,11.44,51.7,53.36,53.36,0,0,1,30.7,21.52,54.2,54.2,0,0,1,64,10h0M64,0A64,64,0,0,0,49.41,126.33L174,155.54a63.61,63.61,0,0,1-29.83-16.26l-.59-.56q-.92-.91-1.8-1.86l-.44-.49c-.48-.52-.94-1.05-1.4-1.58l-.52-.62c-.55-.66-1.09-1.34-1.62-2l-.37-.5c-.43-.57-.85-1.15-1.25-1.73l-.46-.66c-.49-.72-1-1.44-1.42-2.18-.11-.16-.2-.33-.3-.49-.38-.62-.75-1.25-1.11-1.88-.13-.23-.26-.46-.38-.69-.42-.76-.83-1.53-1.22-2.31l-.23-.48c-.32-.67-.64-1.34-.94-2-.1-.24-.21-.47-.31-.71-.35-.81-.69-1.62-1-2.45,0-.14-.1-.28-.16-.42-.27-.72-.52-1.45-.77-2.18-.08-.24-.16-.48-.23-.72-.28-.85-.54-1.7-.77-2.56,0-.13-.07-.25-.1-.37-.21-.77-.4-1.55-.58-2.33,0-.24-.11-.48-.16-.72-.19-.88-.37-1.77-.52-2.66,0-.1,0-.2,0-.31q-.21-1.22-.36-2.46l-.09-.72c-.11-.91-.2-1.82-.26-2.74,0-.08,0-.16,0-.24-.06-.86-.09-1.72-.12-2.58,0-.24,0-.49,0-.73,0-.93,0-1.86,0-2.8v-.16c0-.9.08-1.79.15-2.69,0-.25,0-.49,0-.73q.12-1.43.3-2.85s0,0,0-.08c.12-.92.27-1.85.43-2.78.05-.25.09-.49.14-.73.18-.95.37-1.91.59-2.87s.48-1.9.74-2.83l.21-.71c.26-.91.54-1.81.85-2.69,0,0,0,0,0-.08.32-.9.65-1.8,1-2.68l.27-.67c.34-.84.7-1.66,1.07-2.48a1,1,0,0,1,.07-.15c.39-.85.81-1.69,1.23-2.51l.34-.65c.41-.76.82-1.51,1.26-2.26,0-.06.07-.13.11-.2.47-.79,1-1.57,1.46-2.34.13-.21.27-.41.4-.61q.69-1,1.41-2l.18-.26c.54-.73,1.09-1.44,1.66-2.15l.46-.57c.51-.62,1-1.23,1.55-1.83l.25-.29q.9-1,1.83-1.95l.53-.54c.54-.55,1.1-1.08,1.66-1.61l.33-.31c.65-.6,1.31-1.18,2-1.75l.59-.49c.58-.48,1.16-.95,1.75-1.41l.41-.31c.7-.53,1.41-1,2.12-1.54l.66-.44c.6-.41,1.2-.81,1.82-1.2l.49-.31c.73-.45,1.48-.89,2.24-1.31l.7-.39c.62-.34,1.26-.67,1.89-1l.55-.28c.78-.38,1.56-.74,2.35-1.09l.74-.32c.65-.28,1.31-.54,2-.8l.61-.24c.81-.31,1.63-.59,2.45-.86l.77-.25a63.63,63.63,0,0,1,33.95-1.31L78.62,1.7h0A64.21,64.21,0,0,0,64,0Z"/></g></g></svg>